<?xml version="1.0" standalone="no"?>
<!DOCTYPE svg PUBLIC "-//W3C//DTD SVG 20010904//EN"
 "http://www.w3.org/TR/2001/REC-SVG-20010904/DTD/svg10.dtd">
<svg version="1.0" xmlns="http://www.w3.org/2000/svg"
 width="2000.000000pt" height="2000.000000pt" viewBox="0 0 2000.000000 2000.000000"
 preserveAspectRatio="xMidYMid meet">
<metadata>
Created by potrace 1.11, written by Peter Selinger 2001-2013
</metadata>
<g transform="translate(0.000000,2000.000000) scale(0.100000,-0.100000)"
fill="#000000" stroke="none">
<path d="M0 10000 l0 -10000 10000 0 10000 0 0 10000 0 10000 -10000 0 -10000
0 0 -10000z m12896 3740 c614 -48 1146 -214 1601 -500 517 -325 924 -794 1187
-1368 73 -161 160 -393 149 -402 -9 -8 -1308 -368 -1342 -372 -20 -3 -27 9
-62 107 -51 146 -163 368 -243 484 -342 496 -834 748 -1518 777 -660 28 -1214
-184 -1585 -606 -238 -271 -408 -637 -497 -1070 -98 -481 -98 -1097 0 -1580
195 -955 768 -1536 1629 -1654 399 -55 826 -14 1160 111 485 181 857 579 1054
1128 31 87 43 110 58 109 26 -1 1336 -365 1346 -374 10 -9 -76 -241 -145 -394
-176 -382 -397 -698 -689 -981 -153 -148 -256 -231 -424 -343 -443 -295 -924
-465 -1525 -539 -207 -25 -754 -25 -960 0 -811 100 -1434 382 -1949 882 -387
376 -675 851 -854 1410 -251 783 -276 1798 -66 2640 90 358 256 752 444 1055
152 245 407 540 625 722 506 425 1149 686 1840 747 69 6 141 13 160 15 85 8
489 5 606 -4z m-7366 -3105 l0 -2965 1550 0 1550 0 0 -635 0 -635 -2230 0
-2230 0 0 3600 0 3600 680 0 680 0 0 -2965z"/>
</g>
</svg>
